HIERARCHY
ROOT Hips
{
  OFFSET 45 99.8902 7.75848
  CHANNELS 6 Xposition Yposition Zposition Zrotation Xrotation Yrotation
  JOINT spine
  {
    OFFSET 0 8.81704 0.507024
    CHANNELS 3 Zrotation Xrotation Yrotation
    JOINT spine1
    {
      OFFSET 0 10.7766 0
      CHANNELS 3 Zrotation Xrotation Yrotation
      JOINT spine2
      {
        OFFSET 0 10.3259 0
        CHANNELS 3 Zrotation Xrotation Yrotation
        JOINT Neck
        {
          OFFSET 0 26.511 1.26395
          CHANNELS 3 Zrotation Xrotation Yrotation
          JOINT Head
          {
            OFFSET 0 8.00966 0
            CHANNELS 3 Zrotation Xrotation Yrotation
            End Site
            {
              OFFSET 0 19.3879 -6.39386
            }
          }
        }
        JOINT RightShoulder
        {
          OFFSET -4.34795 11.1512 -0.605422
          CHANNELS 3 Zrotation Xrotation Yrotation
          JOINT RightArm
          {
            OFFSET 0 14.6258 0
            CHANNELS 3 Zrotation Xrotation Yrotation
            JOINT RightArmRoll
            {
              OFFSET 0 7.3834 0
              CHANNELS 3 Zrotation Xrotation Yrotation
              JOINT RightForeArm
              {
                OFFSET 0 21.5052 0
                CHANNELS 3 Zrotation Xrotation Yrotation
                JOINT RightForeArmRoll
                {
                  OFFSET 0 8.28532 0
                  CHANNELS 3 Zrotation Xrotation Yrotation
                  JOINT RightHand
                  {
                    OFFSET 0 16.6268 0
                    CHANNELS 3 Zrotation Xrotation Yrotation
                    End Site
                    {
                      OFFSET 0 0 0
                    }
                  }
                }
              }
            }
          }
        }
        JOINT LeftShoulder
        {
          OFFSET 4.34795 11.1512 -0.605422
          CHANNELS 3 Zrotation Xrotation Yrotation
          JOINT LeftArm
          {
            OFFSET 0 14.6258 0
            CHANNELS 3 Zrotation Xrotation Yrotation
            JOINT LeftArmRoll
            {
              OFFSET 0 7.3834 0
              CHANNELS 3 Zrotation Xrotation Yrotation
              JOINT LeftForeArm
              {
                OFFSET 0 21.5052 0
                CHANNELS 3 Zrotation Xrotation Yrotation
                JOINT LeftForeArmRoll
                {
                  OFFSET 0 8.28532 0
                  CHANNELS 3 Zrotation Xrotation Yrotation
                  JOINT LeftHand
                  {
                    OFFSET 0 16.6268 0
                    CHANNELS 3 Zrotation Xrotation Yrotation
                    End Site
                    {
                      OFFSET 0 0 0
                    }
                  }
                }
              }
            }
          }
        }
      }
    }
  }
  JOINT RightUpLeg
  {
    OFFSET -7.8151 -1.43309 -1.20217
    CHANNELS 3 Zrotation Xrotation Yrotation
    JOINT RightUpLegRoll
    {
      OFFSET 0 19.4959 0
      CHANNELS 3 Zrotation Xrotation Yrotation
      JOINT RightLeg
      {
        OFFSET 0 -24.1427 0
        CHANNELS 3 Zrotation Xrotation Yrotation
        JOINT RightLegRoll
        {
          OFFSET 0 24.2217 0
          CHANNELS 3 Zrotation Xrotation Yrotation
          JOINT RightFoot
          {
            OFFSET 0 20.1605 0
            CHANNELS 3 Zrotation Xrotation Yrotation
            JOINT RightToeBase
            {
              OFFSET 0 16.8532 0
              CHANNELS 3 Zrotation Xrotation Yrotation
              End Site
              {
                OFFSET 0.00714342 8.16186 -0.940781
              }
            }
          }
        }
      }
    }
  }
  JOINT LeftUpLeg
  {
    OFFSET 7.8151 -1.43309 -1.20217
    CHANNELS 3 Zrotation Xrotation Yrotation
    JOINT LeftUpLegRoll
    {
      OFFSET 0 19.496 0
      CHANNELS 3 Zrotation Xrotation Yrotation
      JOINT LeftLeg
      {
        OFFSET 0 24.1426 0
        CHANNELS 3 Zrotation Xrotation Yrotation
        JOINT LeftLegRoll
        {
          OFFSET 0 24.4456 0
          CHANNELS 3 Zrotation Xrotation Yrotation
          JOINT LeftFoot
          {
            OFFSET 0 19.9366 0
            CHANNELS 3 Zrotation Xrotation Yrotation
            JOINT LeftToeBase
            {
              OFFSET 0 16.8532 0
              CHANNELS 3 Zrotation Xrotation Yrotation
              End Site
              {
                OFFSET -0.0320138 8.16188 -0.94078
              }
            }
          }
        }
      }
    }
  }
}
MOTION
Frames: 10
Frame Time: 0.00208333
50.5388 99.9258 11.3974 2.30386 -1.57772 3.6146 -0.049648 -1.98571 0.116327 -0.111853 0.0312932 0.237582 -0.114739 1.67636 0.239521 -8.51784 21.0127 3.44894 2.06547 -4.54781 1.12279 60.0722 -2.62531 -1.77377 114.443 17.3763 10.7823 3.01558e-006 -3.96121e-007 1.05971e-006 12.9243 0.102521 -0.470149 -4.18213e-006 2.16936e-006 -3.02464 8.02887 -4.95146 0.697672 -62.8531 -4.81509 3.26718 -112.112 16.6412 -4.38317 -3.00225e-005 4.28475e-007 -2.281e-006 -10.7403 1.73142 0.664467 2.67681e-005 3.49843e-006 3.00001 -8.02891 -4.95147 -0.697671 175.972 3.10219 1.17467 180 7.01559e-015 178.976 177.884 14.733 179.635 -3.63578e-006 -3.53707e-006 0.30533 -23.0982 72.9733 24.8066 8.12963 25.2354 -3.48451 179.78 0.438117 3.87813 4.54188e-006 -4.6773e-006 -1.11248 -2.0714 -10.6342 0.216304 2.20793e-006 -2.58006e-006 -0.217751 21.5198 71.1437 -22.5619 -8.14724 25.4898 3.13277 
50.5536 99.922 11.4108 2.30268 -1.5642 3.63015 -0.0499231 -1.98745 0.114198 -0.110349 0.0278028 0.233378 -0.113183 1.67287 0.235291 -8.507 21.0283 3.44425 2.05013 -4.56623 1.11833 60.0666 -2.63067 -1.77649 114.445 17.3783 10.7547 3.01558e-006 -3.96121e-007 1.05971e-006 12.9448 0.102501 -0.467216 -4.18213e-006 2.16936e-006 -3.02467 8.02887 -4.95146 0.697672 -62.8553 -4.80614 3.26225 -112.125 16.6632 -4.38074 -3.00225e-005 4.28475e-007 -2.281e-006 -10.7313 1.71647 0.66273 2.67681e-005 3.49843e-006 3.00001 -8.02891 -4.95147 -0.697671 175.973 3.1183 1.17147 180 7.01559e-015 178.976 177.888 14.7415 179.635 -3.63578e-006 -3.53707e-006 0.30533 -23.0991 72.9786 24.8117 8.12963 25.2354 -3.48451 179.779 0.458189 3.88015 4.54188e-006 -4.6773e-006 -1.11248 -2.06883 -10.6523 0.217814 2.20793e-006 -2.58006e-006 -0.218148 21.5288 71.1514 -22.5714 -8.14728 25.4903 3.13205 
50.5504 99.9235 11.4488 2.30144 -1.55011 3.6463 -0.0502416 -1.98934 0.11199 -0.108791 0.0240369 0.229046 -0.111573 1.6691 0.230931 -8.49682 21.0443 3.43942 2.03542 -4.58526 1.11362 60.0606 -2.63627 -1.7793 114.446 17.3802 10.7274 3.01558e-006 -3.96121e-007 1.05971e-006 12.9651 0.102475 -0.464341 -4.18213e-006 2.16936e-006 -3.02472 8.02887 -4.95146 0.697672 -62.8575 -4.79693 3.25718 -112.139 16.6855 -4.37867 -3.00225e-005 4.28475e-007 -2.281e-006 -10.7218 1.70078 0.660912 2.67681e-005 3.49843e-006 3.00001 -8.02891 -4.95147 -0.697671 175.974 3.13495 1.16792 180 7.01559e-015 178.976 177.892 14.75 179.634 -3.63578e-006 -3.53707e-006 0.30533 -23.0998 72.984 24.8167 8.12963 25.2354 -3.48451 179.778 0.477893 3.88247 4.54188e-006 -4.6773e-006 -1.11248 -2.06593 -10.6693 0.219431 2.20793e-006 -2.58006e-006 -0.218541 21.5376 71.1591 -22.5807 -8.14731 25.4908 3.13138 
50.5589 99.9267 11.4451 2.30017 -1.53564 3.66287 -0.0505905 -1.99132 0.109726 -0.107196 0.0200781 0.224623 -0.109924 1.66515 0.226481 -8.4871 21.0605 3.43451 2.02116 -4.60471 1.10874 60.0542 -2.64204 -1.78219 114.448 17.382 10.7002 3.01558e-006 -3.96121e-007 1.05971e-006 12.9852 0.102446 -0.461507 -4.18213e-006 2.16936e-006 -3.02478 8.02887 -4.95146 0.697672 -62.8596 -4.78754 3.252 -112.153 16.708 -4.37685 -3.00225e-005 4.28475e-007 -2.281e-006 -10.712 1.68457 0.659039 2.67681e-005 3.49843e-006 3.00001 -8.02891 -4.95147 -0.697671 175.975 3.15196 1.16412 180 7.01559e-015 178.976 177.896 14.7584 179.634 -3.63578e-006 -3.53707e-006 0.30533 -23.1001 72.9892 24.8216 8.12963 25.2354 -3.48451 179.776 0.49734 3.885 4.54188e-006 -4.6773e-006 -1.11248 -2.06281 -10.6856 0.221123 2.20793e-006 -2.58006e-006 -0.218932 21.5465 71.1667 -22.5901 -8.14735 25.4914 3.13075 
50.5728 99.9175 11.3108 2.29888 -1.52093 3.67969 -0.050957 -1.99336 0.107431 -0.10558 0.0160091 0.220149 -0.108255 1.66108 0.221978 -8.47764 21.0768 3.42955 2.00715 -4.62441 1.10376 60.0476 -2.6479 -1.78511 114.45 17.3838 10.6732 3.01558e-006 -3.96121e-007 1.05971e-006 13.0053 0.102415 -0.458696 -4.18213e-006 2.16936e-006 -3.02484 8.02887 -4.95146 0.697672 -62.8617 -4.77805 3.24675 -112.167 16.7307 -4.37517 -3.00225e-005 4.28475e-007 -2.281e-006 -10.7021 1.66808 0.657133 2.67681e-005 3.49843e-006 3.00001 -8.02891 -4.95147 -0.697671 175.976 3.16919 1.16019 180 7.01559e-015 178.976 177.9 14.7667 179.633 -3.63578e-006 -3.53707e-006 0.30533 -23.1004 72.9945 24.8263 8.12963 25.2354 -3.48451 179.775 0.51664 3.88765 4.54188e-006 -4.6773e-006 -1.11248 -2.05956 -10.7014 0.222857 2.20793e-006 -2.58006e-006 -0.219322 21.5553 71.1743 -22.5994 -8.14738 25.4919 3.13013 
50.5703 99.9152 11.3412 2.29757 -1.50617 3.69657 -0.051328 -1.99541 0.105128 -0.10396 0.0119125 0.215662 -0.10658 1.65698 0.217462 -8.46824 21.0932 3.42457 1.99319 -4.64417 1.09875 60.0409 -2.65379 -1.78804 114.452 17.3855 10.6462 3.01558e-006 -3.96121e-007 1.05971e-006 13.0254 0.102383 -0.455891 -4.18213e-006 2.16936e-006 -3.02491 8.02887 -4.95146 0.697672 -62.8638 -4.76853 3.2415 -112.182 16.7534 -4.37352 -3.00225e-005 4.28475e-007 -2.281e-006 -10.6921 1.6515 0.65522 2.67681e-005 3.49843e-006 3.00001 -8.02891 -4.95147 -0.697671 175.977 3.18648 1.15622 180 7.01559e-015 178.976 177.904 14.7751 179.632 -3.63578e-006 -3.53707e-006 0.30533 -23.1006 72.9997 24.8311 8.12963 25.2354 -3.48451 179.774 0.535904 3.89033 4.54188e-006 -4.6773e-006 -1.11248 -2.05628 -10.7172 0.224602 2.20793e-006 -2.58006e-006 -0.219712 21.5641 71.1819 -22.6087 -8.14742 25.4924 3.12953 
50.5757 99.9129 11.3216 2.29626 -1.49152 3.71333 -0.0516904 -1.99743 0.102841 -0.10235 0.00787104 0.2112 -0.104917 1.65294 0.212972 -8.45871 21.1095 3.41962 1.97911 -4.66381 1.0938 60.0344 -2.65963 -1.79095 114.454 17.3873 10.6191 3.01558e-006 -3.96121e-007 1.05971e-006 13.0455 0.102352 -0.453074 -4.18213e-006 2.16936e-006 -3.02498 8.02887 -4.95146 0.697672 -62.8659 -4.75907 3.23627 -112.196 16.7761 -4.37181 -3.00225e-005 4.28475e-007 -2.281e-006 -10.6821 1.63508 0.653322 2.67681e-005 3.49843e-006 3.00001 -8.02891 -4.95147 -0.697671 175.978 3.20365 1.15232 180 7.01559e-015 178.976 177.909 14.7834 179.632 -3.63578e-006 -3.53707e-006 0.30533 -23.1009 73.0049 24.8359 8.12963 25.2354 -3.48451 179.772 0.55524 3.89295 4.54188e-006 -4.6773e-006 -1.11248 -2.05306 -10.7331 0.226326 2.20793e-006 -2.58006e-006 -0.220103 21.573 71.1895 -22.6181 -8.14745 25.4929 3.12891 
50.5672 99.9108 11.3036 2.29496 -1.47716 3.72979 -0.0520314 -1.99938 0.100594 -0.100769 0.00396734 0.206804 -0.103282 1.64904 0.208547 -8.44884 21.1256 3.41473 1.96471 -4.68315 1.08896 60.0281 -2.66535 -1.79382 114.455 17.3891 10.5919 3.01558e-006 -3.96121e-007 1.05971e-006 13.0657 0.102324 -0.450228 -4.18213e-006 2.16936e-006 -3.02503 8.02887 -4.95146 0.697672 -62.868 -4.74973 3.23112 -112.21 16.7986 -4.36992 -3.00225e-005 4.28475e-007 -2.281e-006 -10.6724 1.61902 0.651465 2.67681e-005 3.49843e-006 3.00001 -8.02891 -4.95147 -0.697671 175.979 3.22057 1.1486 180 7.01559e-015 178.976 177.913 14.7919 179.631 -3.63578e-006 -3.53707e-006 0.30533 -23.1014 73.0102 24.8408 8.12963 25.2354 -3.48451 179.771 0.57476 3.89542 4.54188e-006 -4.6773e-006 -1.11248 -2.05 -10.7496 0.227997 2.20793e-006 -2.58006e-006 -0.220494 21.5819 71.1971 -22.6275 -8.14749 25.4934 3.12827 
50.5718 99.9113 11.3211 2.29369 -1.46325 3.74576 -0.0523378 -2.00123 0.0984096 -0.0992304 0.000284059 0.20251 -0.101691 1.64535 0.204226 -8.43845 21.1415 3.40993 1.94979 -4.70199 1.08433 60.0222 -2.67088 -1.79661 114.457 17.391 10.5645 3.01558e-006 -3.96121e-007 1.05971e-006 13.0861 0.1023 -0.447336 -4.18213e-006 2.16936e-006 -3.02507 8.02887 -4.95146 0.697672 -62.8702 -4.7406 3.22609 -112.223 16.8208 -4.36774 -3.00225e-005 4.28475e-007 -2.281e-006 -10.6631 1.60355 0.649673 2.67681e-005 3.49843e-006 3.00001 -8.02891 -4.95147 -0.697671 175.98 3.23705 1.14515 180 7.01559e-015 178.976 177.917 14.8003 179.63 -3.63578e-006 -3.53707e-006 0.30533 -23.1021 73.0155 24.8459 8.12963 25.2354 -3.48451 179.77 0.594574 3.89765 4.54188e-006 -4.6773e-006 -1.11248 -2.04719 -10.7669 0.229583 2.20793e-006 -2.58006e-006 -0.220889 21.5908 71.2048 -22.6369 -8.14752 25.494 3.12758 
50.5829 99.9106 11.2995 2.29246 -1.44995 3.76105 -0.0525966 -2.00292 0.0963124 -0.0977513 -0.00309615 0.198358 -0.100162 1.64197 0.200048 -8.42732 21.1571 3.40528 1.93417 -4.72017 1.07997 60.0169 -2.67614 -1.79929 114.458 17.393 10.5368 3.01558e-006 -3.96121e-007 1.05971e-006 13.1066 0.102282 -0.44438 -4.18213e-006 2.16936e-006 -3.0251 8.02887 -4.95146 0.697672 -62.8724 -4.73175 3.22123 -112.237 16.8426 -4.36517 -3.00225e-005 4.28475e-007 -2.281e-006 -10.6543 1.58889 0.647968 2.67681e-005 3.49843e-006 3.00001 -8.02891 -4.95147 -0.697671 175.98 3.25295 1.14208 180 7.01559e-015 178.976 177.92 14.809 179.63 -3.63578e-006 -3.53707e-006 0.30533 -23.1032 73.021 24.8511 8.12963 25.2354 -3.48451 179.769 0.614791 3.89955 4.54188e-006 -4.6773e-006 -1.11248 -2.04474 -10.7854 0.231053 2.20793e-006 -2.58006e-006 -0.221287 21.5999 71.2126 -22.6465 -8.14756 25.4945 3.12684 
